:SAMPLES-PER-SECOND 30
:FULLY-SPECIFIED
:DEGREES
265
root  9.97685 31.4783 27.1714 -173.087 -36.8878 179.448
RightUpLeg  -21.5668 0.505191 -35.424
RightLeg  53.2682 0.304929 -0.0208184
RightFoot  -18.527 1.96821 32.698
RightToes  0.000482159 0.542163 -0.142577
Spine  65.5402 1.31908 -0.831833
Spine1  -5.99608 1.23208 -4.86118
HEad  -54.3752 -5.57463 -1.10876
LeftShoulder1  10.3232 -17.098 -43.5941
LeftArm  -37.6029 9.53837 -4.3972
LeftForeArm  60.9779 -69.6719 -23.4708
LeftHand  -0.25398 0.0180481 5.50724
RightShoulder  7.39524 12.742 39.4213
RightArm  -9.81757 34.8413 23.5359
RightForeArm  41.6822 75.4764 44.364
RightHand  -3.00712 7.32965 -27.228
LeftUpLeg  -61.4803 19.7575 3.04641
LeftLeg  65.8989 4.77736 12.2772
LeftFoot  -8.04677 0.135025 -3.22326
LeftToes  1.06246e-005 4.65855e-005 -8.18502e-006
266
root  7.95285 31.7717 26.9037 -172.713 -41.0143 -179.301
RightUpLeg  -21.679 3.93336 -35.0816
RightLeg  56.338 -3.30881 -5.75101
RightFoot  -2.74909 -2.14143 29.7956
RightToes  0.000482159 0.542163 -0.142577
Spine  64.7754 1.98197 -1.18082
Spine1  -4.31166 1.44531 -2.66623
HEad  -51.1123 -4.0622 -2.4317
LeftShoulder1  10.1407 -16.3647 -44.4448
LeftArm  -38.1038 -4.83467 -3.99189
LeftForeArm  60.9381 -67.7026 -20.746
LeftHand  -0.25398 0.0180481 5.50724
RightShoulder  7.51843 12.5968 40.5219
RightArm  -16.5505 26.9097 18.8112
RightForeArm  22.7109 71.6836 34.8871
RightHand  -4.8284 11.6616 -32.3933
LeftUpLeg  -61.5434 17.2976 0.950606
LeftLeg  67.9883 3.98742 11.578
LeftFoot  -13.2016 0.0299304 -3.03458
LeftToes  1.06246e-005 4.65855e-005 -8.18502e-006
267
root  5.99282 32.0949 26.5832 -172.936 -45.0467 -177.964
RightUpLeg  -24.4161 6.63174 -33.2709
RightLeg  61.4068 -2.09946 -4.52734
RightFoot  10.7855 -3.88402 19.7147
RightToes  0.000482159 0.542163 -0.142577
Spine  64.4579 2.27908 -1.55087
Spine1  -4.41468 1.35118 -1.13923
HEad  -48.0522 -1.82241 -2.37519
LeftShoulder1  9.88303 -16.1733 -43.7048
LeftArm  -36.8018 -16.069 -5.89212
LeftForeArm  62.3563 -66.4613 -19.1036
LeftHand  -0.25398 0.0180481 5.50724
RightShoulder  7.74706 12.5372 42.0229
RightArm  -19.4025 18.7398 16.622
RightForeArm  2.51559 66.6187 27.5586
RightHand  -6.85042 15.7552 -36.8388
LeftUpLeg  -60.1095 14.7727 -0.458936
LeftLeg  69.2338 3.41131 10.7727
LeftFoot  -16.8478 0.00158024 -2.14028
LeftToes  1.06246e-005 4.65855e-005 -8.18502e-006
268
root  3.96811 32.5829 26.297 -173.64 -48.5746 -176.625
RightUpLeg  -28.697 5.77218 -29.9094
RightLeg  67.4304 0.207827 -0.220997
RightFoot  11.689 -2.59042 12.8549
RightToes  0.000482159 0.542163 -0.142577
Spine  64.9504 1.87105 -1.81136
Spine1  -5.24723 0.62033 0.684863
HEad  -47.0159 0.689214 -1.94298
LeftShoulder1  9.49508 -16.2267 -41.7521
LeftArm  -34.0753 -22.7644 -9.4635
LeftForeArm  66.4352 -67.9527 -20.407
LeftHand  -0.25398 0.0180481 5.50724
RightShoulder  7.89484 12.5752 42.7721
RightArm  -19.8767 11.5534 16.7019
RightForeArm  -7.83128 61.8187 22.5148
RightHand  -7.82739 17.5776 -38.5411
LeftUpLeg  -57.1346 12.4088 -1.67889
LeftLeg  69.3083 3.41597 10.825
LeftFoot  -21.2717 0.0530337 -0.850327
LeftToes  1.06246e-005 4.65855e-005 -8.18502e-006
269
root  1.74653 33.265 26.1205 -175.083 -50.7645 -174.642
RightUpLeg  -34.8667 0.987582 -24.5384
RightLeg  73.3363 -0.209372 -2.0749
RightFoot  4.77398 -1.34752 9.86243
RightToes  0.000482159 0.542163 -0.142577
Spine  65.7716 0.823536 -1.18042
Spine1  -5.51608 -0.355698 3.20453
HEad  -48.509 3.03389 -1.90721
LeftShoulder1  8.98239 -16.016 -39.7717
LeftArm  -30.7074 -26.8285 -13.5938
LeftForeArm  73.2672 -71.4851 -24.7952
LeftHand  -0.25398 0.0180481 5.50724
RightShoulder  7.94857 12.6334 42.9163
RightArm  -19.2624 5.83736 17.3523
RightForeArm  -8.25654 58.0432 19.0903
RightHand  -7.9742 17.9787 -38.5657
LeftUpLeg  -52.7346 10.6426 -2.37642
LeftLeg  68.1287 3.92696 11.505
LeftFoot  -25.5124 0.101519 -0.393922
LeftToes  1.06246e-005 4.65855e-005 -8.18502e-006
270
root  -0.461305 33.8204 25.9407 -176.426 -51.6298 -173.166
RightUpLeg  -42.6632 -5.22169 -16.957
RightLeg  76.984 -1.6182 -9.449
RightFoot  -2.34191 -0.722142 8.83926
RightToes  0.000482159 0.542163 -0.142577
Spine  66.0847 0.157378 -0.473039
Spine1  -5.66601 -1.122 5.77032
HEad  -51.2028 4.51205 -2.00095
LeftShoulder1  8.7133 -15.7664 -39.0139
LeftArm  -26.9897 -28.824 -17.3772
LeftForeArm  84.2419 -75.8923 -33.9049
LeftHand  -0.25398 0.0180481 5.50724
RightShoulder  7.93916 12.5763 43.0241
RightArm  -17.76 0.57379 17.2576
RightForeArm  -6.38584 56.0075 17.4244
RightHand  -7.80417 17.9494 -37.8518
LeftUpLeg  -47.8451 8.97123 -3.03044
LeftLeg  66.8522 4.82851 12.9878
LeftFoot  -27.9649 0.101493 -0.462118
LeftToes  1.06246e-005 4.65855e-005 -8.18502e-006
271
root  -2.64964 34.1795 25.7195 -177.057 -51.6893 -173.02
RightUpLeg  -50.775 -10.1192 -7.47643
RightLeg  75.7648 -3.11166 -15.0575
RightFoot  -6.97622 -0.24934 5.25763
RightToes  0.000482159 0.542163 -0.142577
Spine  65.9761 -0.239403 -0.0286427
Spine1  -6.7402 -1.74647 7.77989
HEad  -54.0061 4.47406 -1.71017
LeftShoulder1  8.90649 -15.9486 -39.5517
LeftArm  -24.4137 -26.2449 -20.3699
LeftForeArm  98.3561 -79.4461 -48.4907
LeftHand  -0.25398 0.0180481 5.50724
RightShoulder  7.75914 12.2525 42.9059
RightArm  -15.9018 -4.90576 16.7667
RightForeArm  -6.65019 56.15 17.5651
RightHand  -7.46274 17.5774 -36.8702
LeftUpLeg  -42.4605 7.1856 -4.5948
LeftLeg  65.5235 6.42335 15.7469
LeftFoot  -30.2565 0.164422 -0.115376
LeftToes  1.06246e-005 4.65855e-005 -8.18502e-006
